<svg width="14" height="14" viewBox="0 0 14 14" fill="none" xmlns="http://www.w3.org/2000/svg">
<g clip-path="url(#clip0_1222_7352)">
<path fill-rule="evenodd" clip-rule="evenodd" d="M3.84384 0.752707C3.80536 0.369437 3.48279 0.0776367 3.09759 0.0776367H0.770019C0.355806 0.0776367 0.0200195 0.413423 0.0200195 0.827637C0.0200195 1.24185 0.355806 1.57764 0.770019 1.57764H2.41913L2.67074 4.08355C2.67065 4.10107 2.67148 4.11866 2.67325 4.13626L3.1555 8.93107C3.15634 8.9394 3.15739 8.94772 3.15864 8.956C3.21039 9.29723 3.38372 9.60827 3.64669 9.83179C3.90887 10.0546 4.24254 10.1755 4.58655 10.1724H10.4379C10.745 10.1853 11.0483 10.099 11.3027 9.926C11.5611 9.75029 11.7549 9.49482 11.8545 9.19863L11.855 9.19706L13.0933 5.47294L13.0936 5.47177C13.1646 5.25656 13.1834 5.02758 13.1486 4.80367C13.1139 4.58055 13.0269 4.36883 12.8947 4.18579C12.7563 3.99162 12.5716 3.8351 12.3573 3.73045C12.146 3.62726 11.9126 3.57776 11.6778 3.58623H4.12835L3.84384 0.752707ZM11.425 12.8221C11.425 12.1716 10.8977 11.6443 10.2472 11.6443C9.59667 11.6443 9.06932 12.1716 9.06932 12.8221C9.06932 13.4726 9.59667 14 10.2472 14C10.8977 14 11.425 13.4726 11.425 12.8221ZM5.10119 11.6443C5.7517 11.6443 6.27904 12.1716 6.27904 12.8221C6.27904 13.4726 5.7517 14 5.10119 14C4.45067 14 3.92333 13.4726 3.92333 12.8221C3.92333 12.1716 4.45067 11.6443 5.10119 11.6443Z" fill="white"/>
</g>
<defs>
<clipPath id="clip0_1222_7352">
<rect width="14" height="14" fill='white'/>
</clipPath>
</defs>
</svg>
