<?xml version="1.0" encoding="UTF-8"?>
<svg id="Layer_1" xmlns="http://www.w3.org/2000/svg" viewBox="0 0 398.51 73.56">
  <defs>
    <style>
      .cls-1 {
        fill: #fff;
      }

      .cls-2 {
        fill: #ac1e23;
      }
    </style>
  </defs>
  <path class="cls-2" d="M0,2.97h31.72c8.82,0,15.56,2.38,20.22,7.04,3.97,3.96,5.95,9.22,5.95,15.86v.2c0,11.2-6.05,18.24-14.87,21.51l16.95,24.78h-17.84l-14.87-22.21h-12v22.21H0V2.97ZM30.73,36.68c7.53,0,11.7-3.87,11.7-9.81v-.2c0-6.64-4.46-9.91-12-9.91h-15.17v19.93h15.47Z"/>
  <path class="cls-2" d="M66.52,46.1v-.2c0-15.17,10.81-27.66,26.27-27.66,17.75,0,25.87,13.78,25.87,28.85,0,1.19-.1,2.48-.2,3.96h-36.98c1.49,6.84,6.25,10.41,12.99,10.41,5.06,0,8.62-1.59,12.89-5.45l8.62,7.63c-5.06,6.25-12.09,9.91-21.71,9.91-15.96,0-27.76-11.2-27.76-27.46ZM103.99,41.64c-.89-6.74-4.86-11.3-11.2-11.3s-10.31,4.46-11.5,11.3h22.7Z"/>
  <path class="cls-2" d="M127.48,45.9v-.2c0-17.75,11.6-27.46,24.19-27.46,8.03,0,12.99,3.67,16.56,7.93V0h15.07v72.37h-15.07v-7.63c-3.67,5.06-8.62,8.62-16.56,8.62-12.39,0-24.19-9.71-24.19-27.46ZM168.43,45.9v-.2c0-8.82-5.85-14.67-12.89-14.67s-12.99,5.75-12.99,14.67v.2c0,8.82,5.95,14.67,12.99,14.67s12.89-5.85,12.89-14.67Z"/>
  <path class="cls-1" d="M198.36,2.97h28.35c16.56,0,26.57,9.72,26.57,23.99v.2c0,16.16-12.49,24.39-28.06,24.39h-11.6v20.82h-15.27V2.97ZM225.72,37.97c7.63,0,12.09-4.56,12.09-10.51v-.2c0-6.84-4.76-10.51-12.39-10.51h-11.8v21.21h12.09Z"/>
  <path class="cls-1" d="M261.51,37.87v-.2c0-19.73,15.56-35.89,36.98-35.89s36.78,15.96,36.78,35.69v.2c0,19.73-15.56,35.89-36.98,35.89s-36.78-15.96-36.78-35.69ZM319.3,37.87v-.2c0-11.9-8.72-21.81-21.02-21.81s-20.82,9.72-20.82,21.61v.2c0,11.9,8.72,21.81,21.02,21.81s20.82-9.72,20.82-21.61Z"/>
  <path class="cls-1" d="M343.59,62.26l9.02-10.81c6.34,5.16,12.79,8.43,20.72,8.43,6.34,0,10.01-2.48,10.01-6.54v-.2c0-3.87-2.38-5.95-13.98-8.82-14.08-3.47-23-7.53-23-21.21v-.2c0-12.59,10.01-20.92,24.29-20.92,10.21,0,18.64,3.17,25.78,8.82l-7.93,11.5c-6.25-4.26-12.09-6.84-18.04-6.84s-8.92,2.58-8.92,6.05v.2c0,4.66,2.97,5.95,14.97,9.12,14.08,3.77,22.01,8.72,22.01,20.82v.2c0,13.78-10.51,21.51-25.48,21.51-10.61,0-21.12-3.57-29.44-11.1Z"/>
</svg>