<svg width="14" height="14" viewBox="0 0 14 14" fill="none" xmlns="http://www.w3.org/2000/svg">
<g clip-path="url(#clip0_1222_5879)">
<path fill-rule="evenodd" clip-rule="evenodd" d="M10.4774 0.0859642C9.68777 -0.0715067 8.86977 -0.00410059 8.11656 0.280508C7.36334 0.565117 6.70517 1.05549 6.21697 1.69581C5.72878 2.33612 5.43018 3.10064 5.35516 3.90233C5.29592 4.53553 5.37803 5.17181 5.593 5.76594L0.46107 10.8979C-0.133183 11.4921 -0.123329 12.4586 0.482919 13.0406L1.0437 13.5789C1.63042 14.1422 2.55914 14.1353 3.13738 13.5633L8.34005 8.41695C8.91432 8.60299 9.52338 8.66698 10.1277 8.60218C10.9204 8.5172 11.6741 8.21402 12.3047 7.72634C12.9354 7.23866 13.4185 6.58561 13.7003 5.83979C13.9818 5.09459 14.0512 4.28597 13.9009 3.5037C13.8688 3.33067 13.8007 3.1663 13.7011 3.02117C13.6011 2.8755 13.4716 2.75249 13.321 2.66011C13.1239 2.53918 12.8696 2.56923 12.706 2.73276L10.706 4.73276L10.6996 4.73932C10.653 4.78771 10.597 4.8262 10.5352 4.85249C10.4733 4.87879 10.4068 4.89233 10.3396 4.89233C10.2724 4.89233 10.2059 4.87879 10.144 4.85249C10.0822 4.8262 10.0262 4.78771 9.97963 4.73932C9.97108 4.73045 9.9622 4.7219 9.95302 4.71369L9.20733 4.04649C9.12159 3.95414 9.07377 3.83265 9.07377 3.70631C9.07377 3.57613 9.12454 3.45111 9.21525 3.3578L11.2132 1.35986C11.3574 1.21561 11.3996 0.998177 11.3196 0.810468C11.2473 0.640593 11.1386 0.488687 11.0011 0.365496C10.8635 0.242306 10.7006 0.15084 10.5239 0.0975723C10.5086 0.0929626 10.493 0.0890888 10.4774 0.0859642Z" fill="white"/>
</g>
<defs>
<clipPath id="clip0_1222_5879">
<rect width="14" height="14" fill="white"/>
</clipPath>
</defs>
</svg>
